<svg width="1080" height="1080" xmlns="http://www.w3.org/2000/svg">
 <g>
  <title>Layer 1</title>
  <path d="m1016.03631,779.76809c20.54681,0 37.21043,-16.62659 37.21043,-37.12774c0,-20.50115 -16.66362,-37.12774 -37.21043,-37.12774l-235.6528,0l0,-334.14963l235.6528,0c20.54681,0 37.21043,-16.62659 37.21043,-37.12774c0,-20.50115 -16.66362,-37.12774 -37.21043,-37.12774l-235.6528,0l0,-235.12912c0,-20.50581 -16.66362,-37.12774 -37.21043,-37.12774c-20.55148,0 -37.21043,16.62192 -37.21043,37.12774l0,235.12912l-334.89151,0l0,-235.14544c0,-20.50115 -16.66362,-37.12774 -37.21043,-37.12774c-20.55148,0 -37.21043,16.62659 -37.21043,37.12774l0,235.14777l-235.6715,0c-20.54681,0 -37.21043,16.62659 -37.21043,37.12774c0,20.50115 16.66362,37.12774 37.21043,37.12774l235.6715,0l0,334.14729l-235.6715,0c-20.54681,0 -37.21043,16.62659 -37.21043,37.12774c0,20.50115 16.66362,37.12774 37.21043,37.12774l235.6715,0l0,235.12912c0,20.50581 16.65894,37.12774 37.21043,37.12774c20.54681,0 37.21043,-16.62192 37.21043,-37.12774l0,-235.12912l334.89151,0l0,235.14777c0,20.50115 16.65894,37.12774 37.21043,37.12774c20.54681,0 37.21043,-16.62659 37.21043,-37.12774l0,-235.14777l235.6528,0l0,0.00001zm-644.96517,-408.4051l334.89151,0l0,334.14729l-334.89151,0l0,-334.14729z" id="svg_3" fill="#b8b2a7" stroke="#27241d" stroke-width="0"/>
  <path d="m70.22415,256.84423l58.96051,-58.84348l58.96051,58.84348c7.26638,7.25024 16.78511,10.87769 26.30852,10.87769c9.52107,0 19.0398,-3.62745 26.30852,-10.87769c14.53744,-14.48415 14.53744,-37.9973 0,-52.49777l-58.95818,-58.84814l58.95584,-58.84814c14.53744,-14.5028 14.53744,-38.01362 0,-52.49777c-14.5351,-14.5028 -38.08193,-14.5028 -52.61469,0l-58.96051,58.84348l-58.96051,-58.84348c-14.5351,-14.5028 -38.08193,-14.5028 -52.61469,0c-14.53744,14.48415 -14.53744,37.9973 0,52.49777l58.95584,58.84814l-58.95584,58.84581c-14.53744,14.5028 -14.53744,38.01595 0,52.49777c7.26638,7.25024 16.78511,10.87769 26.30852,10.87769c9.52107,0.00233 19.0398,-3.62512 26.30618,-10.87535l-0.00002,-0.00001z" id="svg_4" fill="#b8b2a7" stroke="#27241d" stroke-width="0"/>
  <path d="m591.12341,538.4378l58.96051,-58.84814c14.5351,-14.5028 14.5351,-38.01595 0,-52.49777c-14.53744,-14.50513 -38.08426,-14.50513 -52.61937,0l-58.96051,58.84348l-58.96051,-58.84348c-14.5351,-14.50513 -38.08193,-14.50513 -52.61469,0c-14.5351,14.48415 -14.5351,37.9973 0,52.49777l58.96051,58.84814l-58.96051,58.84814c-14.5351,14.5028 -14.5351,38.01595 0,52.49777c7.26638,7.25024 16.78979,10.87769 26.30852,10.87769c9.52107,0 19.0398,-3.62745 26.30852,-10.87769l58.96051,-58.84348l58.96051,58.84348c7.26638,7.25024 16.78979,10.87769 26.30852,10.87769c9.5234,0 19.0398,-3.62745 26.31085,-10.87769c14.5351,-14.48415 14.5351,-37.9973 0,-52.49777l-58.96285,-58.84814l-0.00001,0z" id="svg_5" fill="#b8b2a7" stroke="#27241d" stroke-width="0"/>
  <path d="m538.49703,282.42521c75.67553,0 137.23185,-61.41952 137.23185,-136.92689c0,-75.50736 -61.55632,-136.92689 -137.23185,-136.92689c-75.67553,0 -137.23185,61.41952 -137.23185,136.92689c0,75.50503 61.55866,136.92689 137.23185,136.92689zm0,-199.5983c34.63098,0 62.811,28.11739 62.811,62.67141c0,34.55402 -28.18002,62.67141 -62.811,62.67141c-34.63098,0 -62.811,-28.11739 -62.811,-62.67141c0,-34.55402 28.18002,-62.67141 62.811,-62.67141z" id="svg_6" fill="#b8b2a7" stroke="#27241d" stroke-width="0"/>
  <path d="m932.47757,797.53233c-75.67553,0 -137.23185,61.41952 -137.23185,136.92689s61.55632,136.92689 137.23185,136.92689c75.6732,0 137.23185,-61.41952 137.23185,-136.92689s-61.55866,-136.92689 -137.23185,-136.92689zm0,199.5983c-34.63098,0 -62.811,-28.11739 -62.811,-62.67141s28.18002,-62.67141 62.811,-62.67141c34.63098,0 62.811,28.11739 62.811,62.67141s-28.18002,62.67141 -62.811,62.67141z" id="svg_7" fill="#b8b2a7" stroke="#27241d" stroke-width="0"/>
 </g>

</svg>