<svg width="1080" height="1080" xmlns="http://www.w3.org/2000/svg">
 <g>
  <title>Layer 1</title>
  <g stroke="null" id="svg_1">
   <g stroke="null" id="svg_2">
    <path stroke="#27241d" fill="#27241d" id="svg_3" d="m1024.25079,783.63582c20.85055,0 37.76051,-16.89477 37.76051,-37.72659c0,-20.83183 -16.90995,-37.72659 -37.76051,-37.72659l-239.13644,0l0,-339.53935l239.13644,0c20.85055,0 37.76051,-16.89477 37.76051,-37.72659c0,-20.83183 -16.90995,-37.72659 -37.76051,-37.72659l-239.13644,0l0,-238.92168c0,-20.83656 -16.90995,-37.72659 -37.76051,-37.72659c-20.85529,0 -37.76051,16.89003 -37.76051,37.72659l0,238.92168l-339.84219,0l0,-238.93826c0,-20.83183 -16.90995,-37.72659 -37.76051,-37.72659c-20.85529,0 -37.76051,16.89477 -37.76051,37.72659l0,238.94063l-239.15541,0c-20.85055,0 -37.76051,16.89477 -37.76051,37.72659c0,20.83183 16.90995,37.72659 37.76051,37.72659l239.15541,0l0,339.53699l-239.15541,0c-20.85055,0 -37.76051,16.89477 -37.76051,37.72659c0,20.83183 16.90995,37.72659 37.76051,37.72659l239.15541,0l0,238.92168c0,20.83656 16.90521,37.72659 37.76051,37.72659c20.85055,0 37.76051,-16.89003 37.76051,-37.72659l0,-238.92168l339.84219,0l0,238.94063c0,20.83183 16.90521,37.72659 37.76051,37.72659c20.85055,0 37.76051,-16.89477 37.76051,-37.72659l0,-238.94063l239.13644,0zm-654.49965,-75.45319l0,-339.53935l339.84219,0l0,339.53699l-339.84219,0l0,0.00237z"/>
    <path stroke="#27241d" fill="#27241d" id="svg_4" d="m64.45675,252.27737l59.83212,-59.7926l59.83212,59.7926c7.3738,7.36718 17.03325,11.05314 26.69743,11.05314c9.66182,0 19.32126,-3.68596 26.69743,-11.05314c14.75235,-14.71778 14.75235,-38.61018 0,-53.34454l-59.82975,-59.79734l59.82738,-59.79734c14.75235,-14.73673 14.75235,-38.62676 0,-53.34454c-14.74998,-14.73673 -38.64489,-14.73673 -53.39249,0l-59.83212,59.7926l-59.83212,-59.7926c-14.74998,-14.73673 -38.64489,-14.73673 -53.39249,0c-14.75235,14.71778 -14.75235,38.61018 0,53.34454l59.82738,59.79734l-59.82738,59.79497c-14.75235,14.73673 -14.75235,38.62913 0,53.34454c7.3738,7.36718 17.03325,11.05314 26.69743,11.05314c9.66182,0.00237 19.32126,-3.68359 26.69506,-11.05077z"/>
    <path stroke="#27241d" fill="#27241d" id="svg_5" d="m593.05643,538.41296l59.83212,-59.79734c14.74998,-14.73673 14.74998,-38.62913 0,-53.34454c-14.75235,-14.7391 -38.64726,-14.7391 -53.39724,0l-59.83212,59.7926l-59.83212,-59.7926c-14.74998,-14.7391 -38.64489,-14.7391 -53.39249,0c-14.74998,14.71778 -14.74998,38.61018 0,53.34454l59.83212,59.79734l-59.83212,59.79734c-14.74998,14.73673 -14.74998,38.62913 0,53.34454c7.3738,7.36718 17.03799,11.05314 26.69743,11.05314c9.66182,0 19.32126,-3.68596 26.69743,-11.05314l59.83212,-59.7926l59.83212,59.7926c7.3738,7.36718 17.03799,11.05314 26.69743,11.05314c9.66419,0 19.32126,-3.68596 26.6998,-11.05314c14.74998,-14.71778 14.74998,-38.61018 0,-53.34454l-59.83449,-59.79734z"/>
    <path stroke="#27241d" fill="#27241d" id="svg_6" d="m539.65208,278.27096c76.79424,0 139.26054,-62.4102 139.26054,-139.13547c0,-76.72527 -62.4663,-139.13547 -139.26054,-139.13547c-76.79424,0 -139.26054,62.4102 -139.26054,139.13547c0,76.7229 62.46867,139.13547 139.26054,139.13547zm0,-202.81776c35.14293,0 63.73953,28.57092 63.73953,63.68228c0,35.11136 -28.5966,63.68228 -63.73953,63.68228c-35.14293,0 -63.73953,-28.57092 -63.73953,-63.68228c0,-35.11136 28.5966,-63.68228 63.73953,-63.68228z"/>
    <path stroke="#27241d" fill="#27241d" id="svg_7" d="m939.4568,801.6866c-76.79424,0 -139.26054,62.4102 -139.26054,139.13547s62.4663,139.13547 139.26054,139.13547c76.79187,0 139.26054,-62.4102 139.26054,-139.13547s-62.46867,-139.13547 -139.26054,-139.13547zm0,202.81776c-35.14293,0 -63.73953,-28.57092 -63.73953,-63.68228s28.5966,-63.68228 63.73953,-63.68228c35.14293,0 63.73953,28.57092 63.73953,63.68228s-28.5966,63.68228 -63.73953,63.68228z"/>
   </g>
  </g>
 </g>

</svg>