<?xml version="1.0" encoding="iso-8859-1"?>
<!-- Uploaded to: SVG Repo, www.svgrepo.com, Generator: SVG Repo Mixer Tools -->
<svg height="800px" width="800px" version="1.1" id="Layer_1" xmlns="http://www.w3.org/2000/svg" xmlns:xlink="http://www.w3.org/1999/xlink" 
	 viewBox="0 0 512 512" xml:space="preserve">
<path style="fill:#F4B2B0;" d="M127.841,92.342c6.565-0.009,13.259,0.256,20.084,0.777c55.183,4.212,98.029,24.753,98.413,24.933
	l9.665,4.697l9.642-4.668c0.422-0.209,43.27-20.749,98.453-24.963c20.758-1.584,40.343-0.741,58.738,2.488l-78.207,59.354
	l21.14,69.027l-109.758-40.572l-109.758,40.572l21.132-69.027L89.162,95.596C101.522,93.423,114.413,92.342,127.841,92.342
	L127.841,92.342z"/>
<g>
	<path style="fill:#B3404A;" d="M256,435.021c-92.655,0-168.036-64.796-168.036-144.442c0-8.503,6.893-15.396,15.396-15.396
		s15.396,6.893,15.396,15.396c0,62.667,61.568,113.65,137.244,113.65c8.503,0,15.396,6.893,15.396,15.396
		C271.396,428.128,264.503,435.021,256,435.021z"/>
	<path style="fill:#B3404A;" d="M459.863,167.695c-5.056-6.837-14.695-8.278-21.533-3.227c-6.837,5.056-8.281,14.695-3.227,21.533
		c22.975,31.073,35.119,67.235,35.119,104.579c0,105.113-96.1,190.629-214.223,190.629S41.777,395.692,41.777,290.579
		c0-58.373,30.328-113.605,81.625-149.671l26.117,19.821l-17.988,58.752c-1.714,5.596-0.105,11.679,4.149,15.699
		c4.255,4.02,10.421,5.276,15.91,3.249l104.42-38.6l104.42,38.6c1.738,0.642,3.544,0.956,5.336,0.956
		c3.867,0,7.667-1.458,10.575-4.205c4.255-4.018,5.863-10.104,4.148-15.699l-17.995-58.752l69.647-52.857
		c4.876-3.701,7.097-9.94,5.655-15.89c-1.443-5.949-6.272-10.48-12.301-11.539c-19.625-3.444-40.689-4.343-62.573-2.674
		c-40.48,3.09-74.238,14.332-91.531,21.128V50.413l34.779-22.005c7.185-4.546,9.325-14.056,4.779-21.242
		c-4.545-7.185-14.055-9.325-21.242-4.779l-41.944,26.538c-4.46,2.822-7.164,7.732-7.164,13.011v56.955
		c-17.419-6.836-51.154-18.042-91.505-21.123c-7.137-0.547-14.173-0.824-20.911-0.824h-0.348c-14.273,0-28.185,1.173-41.345,3.489
		c-6.029,1.059-10.856,5.59-12.297,11.541c-1.441,5.95,0.781,12.187,5.656,15.887l17.951,13.624
		c-54.73,41.869-86.818,103.686-86.818,169.095C10.985,412.671,120.899,512,256,512s245.014-99.329,245.014-221.42
		C501.014,246.598,486.784,204.106,459.863,167.695z M146.753,108.47c50.343,3.843,89.934,22.058,92.932,23.465l9.588,4.66
		c4.242,2.06,9.193,2.065,13.439,0.011l9.642-4.668c0.406-0.194,41.15-19.516,92.917-23.468c5.424-0.414,10.825-0.654,16.095-0.716
		l-46.043,34.942c-5.142,3.903-7.304,10.6-5.413,16.772l12.035,39.296l-80.594-29.792c-3.444-1.273-7.231-1.273-10.677,0
		l-80.598,29.794l12.032-39.299c1.891-6.172-0.273-12.868-5.415-16.771l-46.049-34.947
		C135.853,107.808,141.26,108.05,146.753,108.47z"/>
</g>
</svg>